<?xml version="1.0" standalone="no"?>
<!DOCTYPE svg PUBLIC "-//W3C//DTD SVG 20010904//EN"
 "http://www.w3.org/TR/2001/REC-SVG-20010904/DTD/svg10.dtd">
<svg version="1.0" xmlns="http://www.w3.org/2000/svg"
 width="500.000000pt" height="500.000000pt" viewBox="0 0 500.000000 500.000000"
 preserveAspectRatio="xMidYMid meet">

<g transform="translate(0.000000,500.000000) scale(0.100000,-0.100000)"
fill="#000000" stroke="none">
<path d="M2285 4739 c-243 -32 -507 -138 -708 -283 -325 -233 -570 -622 -632
-1001 -18 -106 -20 -381 -4 -505 58 -474 420 -1214 945 -1937 235 -323 576
-745 606 -751 19 -4 144 138 332 378 655 832 1052 1532 1201 2118 79 314 65
663 -38 948 -84 233 -191 401 -370 583 -227 230 -511 377 -852 442 -79 15
-392 20 -480 8z m394 -1022 c174 -61 311 -201 363 -372 31 -100 31 -244 -1
-338 -50 -147 -161 -272 -306 -342 -241 -116 -539 -36 -699 189 -57 79 -82
144 -98 250 -59 410 351 749 741 613z"/>
</g>
</svg>
