<?xml version="1.0" encoding="UTF-8"?>
<!DOCTYPE svg PUBLIC "-//W3C//DTD SVG 1.1//EN" "http://www.w3.org/Graphics/SVG/1.1/DTD/svg11.dtd">
<svg xmlns="http://www.w3.org/2000/svg" version="1.1" width="500px" height="500px" style="shape-rendering:geometricPrecision; text-rendering:geometricPrecision; image-rendering:optimizeQuality; fill-rule:evenodd; clip-rule:evenodd" xmlns:xlink="http://www.w3.org/1999/xlink">
<g><path style="opacity:0.991" fill="#df2e2a" d="M 277.5,192.5 C 278.514,193.674 279.847,194.34 281.5,194.5C 282.167,194.833 282.833,195.167 283.5,195.5C 284.035,197.446 285.368,198.446 287.5,198.5C 288.539,200.531 290.205,201.864 292.5,202.5C 293.167,202.5 293.5,202.833 293.5,203.5C 293.833,204.5 294.5,205.167 295.5,205.5C 296.08,207.749 297.413,209.415 299.5,210.5C 299.738,212.404 300.738,213.738 302.5,214.5C 311.457,228.443 314.623,243.776 312,260.5C 308.463,279.952 298.297,294.619 281.5,304.5C 279.847,304.66 278.514,305.326 277.5,306.5C 257.445,316.026 237.445,315.526 217.5,305C 214.98,303.303 212.647,301.47 210.5,299.5C 209.738,297.738 208.404,296.738 206.5,296.5C 203.392,293.933 200.725,290.933 198.5,287.5C 198.446,285.368 197.446,284.035 195.5,283.5C 195.167,282.833 194.833,282.167 194.5,281.5C 194.34,279.847 193.674,278.514 192.5,277.5C 189.618,273.034 187.785,268.034 187,262.5C 186.024,251.728 186.524,241.061 188.5,230.5C 190.213,229.365 190.88,227.698 190.5,225.5C 191.167,223.833 191.833,222.167 192.5,220.5C 193.906,220.027 194.573,219.027 194.5,217.5C 194.932,216.29 195.599,215.29 196.5,214.5C 198.262,213.738 199.262,212.404 199.5,210.5C 201.262,209.738 202.262,208.404 202.5,206.5C 203.5,204.833 204.833,203.5 206.5,202.5C 208.404,202.262 209.738,201.262 210.5,199.5C 212.404,199.262 213.738,198.262 214.5,196.5C 217.247,193.793 220.58,192.127 224.5,191.5C 226.153,191.34 227.486,190.674 228.5,189.5C 230.954,188.379 233.621,187.546 236.5,187C 245.167,186.333 253.833,186.333 262.5,187C 267.992,187.783 272.992,189.616 277.5,192.5 Z"/></g>
<g><path style="opacity:0.525" fill="#f49d99" d="M 228.5,189.5 C 227.486,190.674 226.153,191.34 224.5,191.5C 225.287,189.896 226.62,189.229 228.5,189.5 Z"/></g>
<g><path style="opacity:0.078" fill="#fcd8d7" d="M 277.5,192.5 C 279.38,192.229 280.713,192.896 281.5,194.5C 279.847,194.34 278.514,193.674 277.5,192.5 Z"/></g>
<g><path style="opacity:0.737" fill="#f9a59c" d="M 283.5,195.5 C 285.23,196.026 286.564,197.026 287.5,198.5C 285.368,198.446 284.035,197.446 283.5,195.5 Z"/></g>
<g><path style="opacity:0.486" fill="#f49f9b" d="M 214.5,196.5 C 213.738,198.262 212.404,199.262 210.5,199.5C 211.262,197.738 212.596,196.738 214.5,196.5 Z"/></g>
<g><path style="opacity:0.929" fill="#f8a39b" d="M 287.5,198.5 C 289.754,199.124 291.421,200.457 292.5,202.5C 290.205,201.864 288.539,200.531 287.5,198.5 Z"/></g>
<g><path style="opacity:0.439" fill="#f6a39f" d="M 210.5,199.5 C 209.738,201.262 208.404,202.262 206.5,202.5C 207.262,200.738 208.596,199.738 210.5,199.5 Z"/></g>
<g><path style="opacity:1" fill="#fe3131" d="M 239.5,200.5 C 270.075,197.942 289.575,211.275 298,240.5C 300.503,270.006 287.67,289.172 259.5,298C 229.084,300.883 209.584,287.716 201,258.5C 198.605,228.935 211.439,209.601 239.5,200.5 Z"/></g>
<g><path style="opacity:0.008" fill="#fcefef" d="M 293.5,203.5 C 294.833,203.5 295.5,204.167 295.5,205.5C 294.5,205.167 293.833,204.5 293.5,203.5 Z"/></g>
<g><path style="opacity:0.804" fill="#f7a8a4" d="M 295.5,205.5 C 297.587,206.585 298.92,208.251 299.5,210.5C 297.413,209.415 296.08,207.749 295.5,205.5 Z"/></g>
<g><path style="opacity:0.557" fill="#f8a9a4" d="M 202.5,206.5 C 202.262,208.404 201.262,209.738 199.5,210.5C 199.738,208.596 200.738,207.262 202.5,206.5 Z"/></g>
<g><path style="opacity:0.737" fill="#f59892" d="M 199.5,210.5 C 199.262,212.404 198.262,213.738 196.5,214.5C 196.738,212.596 197.738,211.262 199.5,210.5 Z"/></g>
<g><path style="opacity:0.765" fill="#f59993" d="M 299.5,210.5 C 301.262,211.262 302.262,212.596 302.5,214.5C 300.738,213.738 299.738,212.404 299.5,210.5 Z"/></g>
<g><path style="opacity:1" fill="#ff5656" d="M 241.5,214.5 C 271.165,212.999 285.331,226.999 284,256.5C 277.907,277.813 263.741,286.98 241.5,284C 220.608,277.078 211.775,262.578 215,240.5C 219.122,226.877 227.955,218.21 241.5,214.5 Z"/></g>
<g><path style="opacity:0.071" fill="#fde1e1" d="M 194.5,217.5 C 194.573,219.027 193.906,220.027 192.5,220.5C 192.427,218.973 193.094,217.973 194.5,217.5 Z"/></g>
<g><path style="opacity:0.557" fill="#f8a49e" d="M 190.5,225.5 C 190.88,227.698 190.213,229.365 188.5,230.5C 188.796,228.597 189.463,226.93 190.5,225.5 Z"/></g>
<g><path style="opacity:0.086" fill="#fcd1d0" d="M 192.5,277.5 C 193.674,278.514 194.34,279.847 194.5,281.5C 192.896,280.713 192.229,279.38 192.5,277.5 Z"/></g>
<g><path style="opacity:0.714" fill="#f9a096" d="M 195.5,283.5 C 197.446,284.035 198.446,285.368 198.5,287.5C 197.026,286.564 196.026,285.23 195.5,283.5 Z"/></g>
<g><path style="opacity:0.447" fill="#f6ada9" d="M 206.5,296.5 C 208.404,296.738 209.738,297.738 210.5,299.5C 208.596,299.262 207.262,298.262 206.5,296.5 Z"/></g>
<g><path style="opacity:0.071" fill="#fcd8d7" d="M 281.5,304.5 C 280.713,306.104 279.38,306.771 277.5,306.5C 278.514,305.326 279.847,304.66 281.5,304.5 Z"/></g>
</svg>
