<?xml version="1.0" encoding="UTF-8"?>
<!DOCTYPE svg PUBLIC "-//W3C//DTD SVG 1.1//EN" "http://www.w3.org/Graphics/SVG/1.1/DTD/svg11.dtd">
<svg xmlns="http://www.w3.org/2000/svg" version="1.1" width="500px" height="500px" style="shape-rendering:geometricPrecision; text-rendering:geometricPrecision; image-rendering:optimizeQuality; fill-rule:evenodd; clip-rule:evenodd" xmlns:xlink="http://www.w3.org/1999/xlink">
<g><path style="opacity:0.981" fill="#ff9350" d="M 296.5,206.5 C 296.427,208.027 297.094,209.027 298.5,209.5C 305.936,218.048 310.436,228.048 312,239.5C 314.798,265.981 305.631,287.148 284.5,303C 267.235,312.788 248.902,315.122 229.5,310C 214.323,304.642 202.656,295.142 194.5,281.5C 194.715,279.821 194.048,278.821 192.5,278.5C 184.365,258.787 184.532,239.121 193,219.5C 194.699,216.079 196.865,213.079 199.5,210.5C 201.262,209.738 202.262,208.404 202.5,206.5C 203.5,204.833 204.833,203.5 206.5,202.5C 208.404,202.262 209.738,201.262 210.5,199.5C 218.636,192.937 227.97,188.77 238.5,187C 257.74,184.307 275.074,188.64 290.5,200C 292.394,202.389 294.394,204.556 296.5,206.5 Z"/></g>
<g><path style="opacity:0.341" fill="#ffcfb2" d="M 210.5,199.5 C 209.738,201.262 208.404,202.262 206.5,202.5C 207.262,200.738 208.596,199.738 210.5,199.5 Z"/></g>
<g><path style="opacity:1" fill="#ffbc58" d="M 239.5,200.5 C 269.948,198.121 289.448,211.455 298,240.5C 300.519,268.988 288.353,287.821 261.5,297C 235.106,301.719 215.939,292.219 204,268.5C 195.017,234.795 206.85,212.129 239.5,200.5 Z"/></g>
<g><path style="opacity:0.431" fill="#ffd1b6" d="M 202.5,206.5 C 202.262,208.404 201.262,209.738 199.5,210.5C 199.738,208.596 200.738,207.262 202.5,206.5 Z"/></g>
<g><path style="opacity:0.4" fill="#ffd1b4" d="M 296.5,206.5 C 297.906,206.973 298.573,207.973 298.5,209.5C 297.094,209.027 296.427,208.027 296.5,206.5 Z"/></g>
<g><path style="opacity:1" fill="#ffdd58" d="M 242.5,214.5 C 272.142,213.641 285.976,227.975 284,257.5C 277.347,278.089 263.18,286.922 241.5,284C 220.618,277.102 211.785,262.602 215,240.5C 219.234,226.428 228.401,217.761 242.5,214.5 Z"/></g>
<g><path style="opacity:0.482" fill="#ffc8a6" d="M 192.5,278.5 C 194.048,278.821 194.715,279.821 194.5,281.5C 193.599,280.71 192.932,279.71 192.5,278.5 Z"/></g>
</svg>
