<?xml version="1.0" encoding="UTF-8"?>
<!DOCTYPE svg PUBLIC "-//W3C//DTD SVG 1.1//EN" "http://www.w3.org/Graphics/SVG/1.1/DTD/svg11.dtd">
<svg xmlns="http://www.w3.org/2000/svg" version="1.1" width="500px" height="500px" style="shape-rendering:geometricPrecision; text-rendering:geometricPrecision; image-rendering:optimizeQuality; fill-rule:evenodd; clip-rule:evenodd" xmlns:xlink="http://www.w3.org/1999/xlink">
<g><path style="opacity:0.992" fill="#ffbd5a" d="M 156.5,153.5 C 158.749,152.92 160.415,151.587 161.5,149.5C 186.222,127.107 215.555,116.107 249.5,116.5C 314.042,119.514 356.875,151.514 378,212.5C 391.238,272.098 374.405,320.931 327.5,359C 311.827,369.335 294.827,376.668 276.5,381C 224.23,389.028 180.73,373.528 146,334.5C 117.792,298.278 109.459,257.611 121,212.5C 125.359,198.7 131.359,185.7 139,173.5C 144.289,166.376 150.123,159.709 156.5,153.5 Z"/></g>
<g><path style="opacity:1" fill="#ff914d" d="M 237.5,149.5 C 287.213,147.258 322.38,168.591 343,213.5C 356.398,255.741 347.564,292.574 316.5,324C 282.303,351.701 244.97,356.701 204.5,339C 165.537,316.587 147.371,282.754 150,237.5C 159.367,188.3 188.534,158.966 237.5,149.5 Z"/></g>
<g><path style="opacity:0.357" fill="#ffd898" d="M 161.5,149.5 C 160.415,151.587 158.749,152.92 156.5,153.5C 157.585,151.413 159.251,150.08 161.5,149.5 Z"/></g>
<g><path style="opacity:1" fill="#ffdd58" d="M 237.5,183.5 C 271.539,180.429 296.039,194.096 311,224.5C 321.58,259.098 312.08,286.598 282.5,307C 276.567,310.401 270.234,312.734 263.5,314C 229.583,319.125 204.749,306.625 189,276.5C 175.782,236.802 187.615,207.302 224.5,188C 228.893,186.329 233.226,184.829 237.5,183.5 Z"/></g>
</svg>
