<?xml version="1.0" encoding="UTF-8"?>
<!DOCTYPE svg PUBLIC "-//W3C//DTD SVG 1.1//EN" "http://www.w3.org/Graphics/SVG/1.1/DTD/svg11.dtd">
<svg xmlns="http://www.w3.org/2000/svg" version="1.1" width="500px" height="500px" style="shape-rendering:geometricPrecision; text-rendering:geometricPrecision; image-rendering:optimizeQuality; fill-rule:evenodd; clip-rule:evenodd" xmlns:xlink="http://www.w3.org/1999/xlink">
<g><path style="opacity:0.998" fill="#ffbf05" d="M 372.5,81.5 C 372.427,83.0269 373.094,84.0269 374.5,84.5C 379.403,89.8229 383.403,95.8229 386.5,102.5C 386.427,104.027 387.094,105.027 388.5,105.5C 407.679,142.889 412.512,182.222 403,223.5C 395.3,249.238 385.633,274.238 374,298.5C 339.649,361.635 298.815,420.135 251.5,474C 246.537,474.564 243.203,472.397 241.5,467.5C 240.833,466.167 239.833,465.167 238.5,464.5C 238.5,463.833 238.167,463.5 237.5,463.5C 237.573,461.973 236.906,460.973 235.5,460.5C 230.79,456.087 226.79,451.087 223.5,445.5C 223.167,444.5 222.5,443.833 221.5,443.5C 203.643,422.15 186.977,399.816 171.5,376.5C 171.715,374.821 171.048,373.821 169.5,373.5C 163.486,364.13 157.486,354.797 151.5,345.5C 151.715,343.821 151.048,342.821 149.5,342.5C 126.026,305.873 108.192,266.54 96,224.5C 91.7651,203.373 90.4317,182.04 92,160.5C 92.3755,154.003 93.5421,147.669 95.5,141.5C 97.4725,138.916 98.4725,135.916 98.5,132.5C 102.151,120.865 107.151,109.865 113.5,99.5C 114.906,99.0269 115.573,98.0269 115.5,96.5C 116.769,92.9464 118.769,89.9464 121.5,87.5C 122.5,87.1667 123.167,86.5 123.5,85.5C 123.328,84.5084 123.662,83.8417 124.5,83.5C 125.5,83.1667 126.167,82.5 126.5,81.5C 129.792,76.5399 133.792,72.2066 138.5,68.5C 142.1,66.5698 145.1,63.9031 147.5,60.5C 167.45,42.4995 190.783,31.1662 217.5,26.5C 220.428,26.4349 223.095,25.7682 225.5,24.5C 285.094,17.7013 334.094,36.7013 372.5,81.5 Z M 259.5,126.5 C 259.833,126.5 260.167,126.5 260.5,126.5C 262.599,127.612 264.933,128.279 267.5,128.5C 269.954,130.06 272.62,131.06 275.5,131.5C 275.973,132.906 276.973,133.573 278.5,133.5C 278.973,134.906 279.973,135.573 281.5,135.5C 282.262,137.262 283.596,138.262 285.5,138.5C 287.5,141.167 289.833,143.5 292.5,145.5C 292.427,147.027 293.094,148.027 294.5,148.5C 294.932,149.71 295.599,150.71 296.5,151.5C 296.427,153.027 297.094,154.027 298.5,154.5C 298.328,155.492 298.662,156.158 299.5,156.5C 299.229,158.38 299.896,159.713 301.5,160.5C 304.237,169.262 305.571,178.262 305.5,187.5C 304.215,190.589 303.549,193.922 303.5,197.5C 302.89,198.391 302.557,199.391 302.5,200.5C 301.508,202.456 300.508,204.456 299.5,206.5C 298.89,207.391 298.557,208.391 298.5,209.5C 296.738,210.262 295.738,211.596 295.5,213.5C 293.738,214.262 292.738,215.596 292.5,217.5C 289.5,219.833 286.833,222.5 284.5,225.5C 282.5,225.5 281.5,226.5 281.5,228.5C 281.167,228.5 280.833,228.5 280.5,228.5C 278.973,228.427 277.973,229.094 277.5,230.5C 250.527,242.937 226.693,238.604 206,217.5C 187.619,192.16 188.452,167.493 208.5,143.5C 212.73,139.1 217.397,135.266 222.5,132C 228.219,129.237 234.219,127.404 240.5,126.5C 246.833,125.167 253.167,125.167 259.5,126.5 Z"/></g>
<g><path style="opacity:0.455" fill="#ffe69c" d="M 225.5,24.5 C 223.095,25.7682 220.428,26.4349 217.5,26.5C 219.838,24.9605 222.505,24.2938 225.5,24.5 Z"/></g>
<g><path style="opacity:0.804" fill="#ffd469" d="M 147.5,60.5 C 145.1,63.9031 142.1,66.5698 138.5,68.5C 140.9,65.0969 143.9,62.4302 147.5,60.5 Z"/></g>
<g><path style="opacity:0.141" fill="#fff7df" d="M 126.5,81.5 C 126.167,82.5 125.5,83.1667 124.5,83.5C 124.5,82.1667 125.167,81.5 126.5,81.5 Z"/></g>
<g><path style="opacity:0.357" fill="#ffe499" d="M 372.5,81.5 C 373.906,81.9731 374.573,82.9731 374.5,84.5C 373.094,84.0269 372.427,83.0269 372.5,81.5 Z"/></g>
<g><path style="opacity:0.149" fill="#fff1c9" d="M 123.5,85.5 C 123.167,86.5 122.5,87.1667 121.5,87.5C 121.5,86.1667 122.167,85.5 123.5,85.5 Z"/></g>
<g><path style="opacity:0.039" fill="#ffeac4" d="M 115.5,96.5 C 115.573,98.0269 114.906,99.0269 113.5,99.5C 113.427,97.9731 114.094,96.9731 115.5,96.5 Z"/></g>
<g><path style="opacity:0.098" fill="#ffe4a1" d="M 386.5,102.5 C 387.906,102.973 388.573,103.973 388.5,105.5C 387.094,105.027 386.427,104.027 386.5,102.5 Z"/></g>
<g><path style="opacity:0.62" fill="#ffe290" d="M 259.5,126.5 C 253.167,125.167 246.833,125.167 240.5,126.5C 243.186,125.009 246.186,124.343 249.5,124.5C 253.117,124.398 256.45,125.065 259.5,126.5 Z"/></g>
<g><path style="opacity:0.549" fill="#ffe9af" d="M 260.5,126.5 C 263.228,126.171 265.562,126.837 267.5,128.5C 264.933,128.279 262.599,127.612 260.5,126.5 Z"/></g>
<g><path style="opacity:0.38" fill="#ffedba" d="M 275.5,131.5 C 277.027,131.427 278.027,132.094 278.5,133.5C 276.973,133.573 275.973,132.906 275.5,131.5 Z"/></g>
<g><path style="opacity:0.322" fill="#ffefc4" d="M 278.5,133.5 C 280.027,133.427 281.027,134.094 281.5,135.5C 279.973,135.573 278.973,134.906 278.5,133.5 Z"/></g>
<g><path style="opacity:0.537" fill="#ffeab0" d="M 281.5,135.5 C 283.404,135.738 284.738,136.738 285.5,138.5C 283.596,138.262 282.262,137.262 281.5,135.5 Z"/></g>
<g><path style="opacity:0.373" fill="#ffe49c" d="M 98.5,132.5 C 98.4725,135.916 97.4725,138.916 95.5,141.5C 95.9281,138.215 96.9281,135.215 98.5,132.5 Z"/></g>
<g><path style="opacity:0.035" fill="#fff9e5" d="M 292.5,145.5 C 293.906,145.973 294.573,146.973 294.5,148.5C 293.094,148.027 292.427,147.027 292.5,145.5 Z"/></g>
<g><path style="opacity:0.004" fill="#fffaee" d="M 296.5,151.5 C 297.906,151.973 298.573,152.973 298.5,154.5C 297.094,154.027 296.427,153.027 296.5,151.5 Z"/></g>
<g><path style="opacity:0.027" fill="#fffaef" d="M 299.5,156.5 C 300.674,157.514 301.34,158.847 301.5,160.5C 299.896,159.713 299.229,158.38 299.5,156.5 Z"/></g>
<g><path style="opacity:0.412" fill="#ffedb9" d="M 305.5,187.5 C 305.678,191.122 305.011,194.456 303.5,197.5C 303.549,193.922 304.215,190.589 305.5,187.5 Z"/></g>
<g><path style="opacity:0.851" fill="#ffe092" d="M 302.5,200.5 C 302.975,203.313 301.975,205.313 299.5,206.5C 300.508,204.456 301.508,202.456 302.5,200.5 Z"/></g>
<g><path style="opacity:0.396" fill="#ffedba" d="M 298.5,209.5 C 298.262,211.404 297.262,212.738 295.5,213.5C 295.738,211.596 296.738,210.262 298.5,209.5 Z"/></g>
<g><path style="opacity:0.357" fill="#fff6db" d="M 295.5,213.5 C 295.262,215.404 294.262,216.738 292.5,217.5C 292.738,215.596 293.738,214.262 295.5,213.5 Z"/></g>
<g><path style="opacity:0.463" fill="#ffecb6" d="M 292.5,217.5 C 290.833,221.167 288.167,223.833 284.5,225.5C 286.833,222.5 289.5,219.833 292.5,217.5 Z"/></g>
<g><path style="opacity:0.349" fill="#fff3d1" d="M 284.5,225.5 C 283.833,226.833 282.833,227.833 281.5,228.5C 281.5,226.5 282.5,225.5 284.5,225.5 Z"/></g>
<g><path style="opacity:0.427" fill="#ffecb3" d="M 280.5,228.5 C 280.027,229.906 279.027,230.573 277.5,230.5C 277.973,229.094 278.973,228.427 280.5,228.5 Z"/></g>
<g><path style="opacity:0.553" fill="#ffe194" d="M 149.5,342.5 C 151.048,342.821 151.715,343.821 151.5,345.5C 150.599,344.71 149.932,343.71 149.5,342.5 Z"/></g>
<g><path style="opacity:0.624" fill="#ffe69f" d="M 169.5,373.5 C 171.048,373.821 171.715,374.821 171.5,376.5C 170.599,375.71 169.932,374.71 169.5,373.5 Z"/></g>
<g><path style="opacity:0.004" fill="#fff4d9" d="M 221.5,443.5 C 222.5,443.833 223.167,444.5 223.5,445.5C 222.167,445.5 221.5,444.833 221.5,443.5 Z"/></g>
<g><path style="opacity:0.043" fill="#fff5da" d="M 235.5,460.5 C 236.906,460.973 237.573,461.973 237.5,463.5C 236.094,463.027 235.427,462.027 235.5,460.5 Z"/></g>
<g><path style="opacity:0.004" fill="#fffbef" d="M 238.5,464.5 C 239.833,465.167 240.833,466.167 241.5,467.5C 239.5,467.5 238.5,466.5 238.5,464.5 Z"/></g>
</svg>
